<mxfile host="Electron" agent="Mozilla/5.0 (Macintosh; Intel Mac OS X 10_15_7) AppleWebKit/537.36 (KHTML, like Gecko) draw.io/28.1.2 Chrome/138.0.7204.243 Electron/37.4.0 Safari/537.36" version="28.1.2">
  <diagram name="roadmap" id="VKrFW92o7dGFkjZMN_GA">
    <mxGraphModel dx="5805" dy="3849" grid="1" gridSize="10" guides="1" tooltips="1" connect="1" arrows="1" fold="1" page="1" pageScale="1" pageWidth="3300" pageHeight="2339" math="0" shadow="0">
      <root>
        <mxCell id="0" />
        <mxCell id="1" parent="0" />
        <mxCell id="QlwB00z0-otb056kdUWZ-19" value="" style="shape=rect;fillColor=#fff2cc;strokeColor=none;fontSize=24;html=1;whiteSpace=wrap;align=left;verticalAlign=top;spacing=5;rounded=0;" parent="1" vertex="1">
          <mxGeometry x="-2500" y="-657" width="1800" height="190" as="geometry" />
        </mxCell>
        <mxCell id="QlwB00z0-otb056kdUWZ-18" value="" style="shape=rect;fillColor=#fff2cc;strokeColor=none;fontSize=24;html=1;whiteSpace=wrap;align=left;verticalAlign=top;spacing=5;rounded=0;" parent="1" vertex="1">
          <mxGeometry x="-2500" y="-842" width="1800" height="180" as="geometry" />
        </mxCell>
        <mxCell id="QlwB00z0-otb056kdUWZ-3" value="" style="shape=rect;fillColor=#fff2cc;strokeColor=none;fontSize=24;html=1;whiteSpace=wrap;align=left;verticalAlign=top;spacing=5;rounded=0;" parent="1" vertex="1">
          <mxGeometry x="-2500" y="-1146.8" width="1800" height="296.8" as="geometry" />
        </mxCell>
        <mxCell id="QlwB00z0-otb056kdUWZ-6" value="АБС" style="rounded=0;whiteSpace=wrap;html=1;fillColor=#f5f5f5;fontColor=#333333;strokeColor=#666666;fontSize=18;" parent="1" vertex="1">
          <mxGeometry x="-2630" y="-1146.8" width="120" height="296.8" as="geometry" />
        </mxCell>
        <mxCell id="QlwB00z0-otb056kdUWZ-8" value="Q1" style="shape=step;perimeter=stepPerimeter;whiteSpace=wrap;html=1;fixedSize=1;size=10;fillColor=#f5f5f5;strokeColor=#666666;fontSize=18;fontStyle=1;align=center;rounded=0;fontColor=#333333;" parent="1" vertex="1">
          <mxGeometry x="-2500" y="-1240" width="440" height="74.4" as="geometry" />
        </mxCell>
        <mxCell id="QlwB00z0-otb056kdUWZ-14" value="Система колл-центра" style="rounded=0;whiteSpace=wrap;html=1;fillColor=#f5f5f5;fontColor=#333333;strokeColor=#666666;fontSize=18;" parent="1" vertex="1">
          <mxGeometry x="-2630" y="-842" width="120" height="180" as="geometry" />
        </mxCell>
        <mxCell id="QlwB00z0-otb056kdUWZ-15" value="Система&amp;nbsp; партнерского колл-центра" style="rounded=0;whiteSpace=wrap;html=1;fillColor=#f5f5f5;fontColor=#333333;strokeColor=#666666;fontSize=18;" parent="1" vertex="1">
          <mxGeometry x="-2630" y="-657" width="120" height="190" as="geometry" />
        </mxCell>
        <mxCell id="dGDl5BXjpk7aTAp1fB94-1" value="Q2" style="shape=step;perimeter=stepPerimeter;whiteSpace=wrap;html=1;fixedSize=1;size=10;fillColor=#f5f5f5;strokeColor=#666666;fontSize=18;fontStyle=1;align=center;rounded=0;fontColor=#333333;" vertex="1" parent="1">
          <mxGeometry x="-2050" y="-1240" width="440" height="74.4" as="geometry" />
        </mxCell>
        <mxCell id="dGDl5BXjpk7aTAp1fB94-2" value="Q3" style="shape=step;perimeter=stepPerimeter;whiteSpace=wrap;html=1;fixedSize=1;size=10;fillColor=#f5f5f5;strokeColor=#666666;fontSize=18;fontStyle=1;align=center;rounded=0;fontColor=#333333;" vertex="1" parent="1">
          <mxGeometry x="-1600" y="-1244" width="440" height="74.4" as="geometry" />
        </mxCell>
        <mxCell id="dGDl5BXjpk7aTAp1fB94-3" value="Q4" style="shape=step;perimeter=stepPerimeter;whiteSpace=wrap;html=1;fixedSize=1;size=10;fillColor=#f5f5f5;strokeColor=#666666;fontSize=18;fontStyle=1;align=center;rounded=0;fontColor=#333333;" vertex="1" parent="1">
          <mxGeometry x="-1150" y="-1244" width="440" height="74.4" as="geometry" />
        </mxCell>
        <mxCell id="dGDl5BXjpk7aTAp1fB94-7" value="T1 -&amp;nbsp;API для чтения ставок" style="shape=rect;fillColor=#dae8fc;strokeColor=#6c8ebf;fontSize=18;html=1;whiteSpace=wrap;align=left;verticalAlign=top;spacing=5;rounded=0;" vertex="1" parent="1">
          <mxGeometry x="-1590" y="-1130" width="220" height="70" as="geometry" />
        </mxCell>
        <mxCell id="dGDl5BXjpk7aTAp1fB94-8" value="MVP целевого решения" style="shape=rect;fillColor=#d5e8d4;strokeColor=#82b366;fontSize=18;html=1;whiteSpace=wrap;align=center;verticalAlign=top;spacing=5;rounded=0;" vertex="1" parent="1">
          <mxGeometry x="-2495" y="-1130" width="880" height="40" as="geometry" />
        </mxCell>
        <mxCell id="dGDl5BXjpk7aTAp1fB94-9" value="MVP целевого решения" style="shape=rect;fillColor=#d5e8d4;strokeColor=#82b366;fontSize=18;html=1;whiteSpace=wrap;align=center;verticalAlign=top;spacing=5;rounded=0;" vertex="1" parent="1">
          <mxGeometry x="-2500" y="-822" width="880" height="42" as="geometry" />
        </mxCell>
        <mxCell id="dGDl5BXjpk7aTAp1fB94-10" value="T2 -&amp;nbsp;Импорт XLS" style="shape=rect;fillColor=#dae8fc;strokeColor=#6c8ebf;fontSize=18;html=1;whiteSpace=wrap;align=left;verticalAlign=top;spacing=5;rounded=0;" vertex="1" parent="1">
          <mxGeometry x="-1540" y="-1043.4" width="170" height="53.4" as="geometry" />
        </mxCell>
        <mxCell id="dGDl5BXjpk7aTAp1fB94-11" value="T3 -&amp;nbsp;Экспортёр ставок" style="shape=rect;fillColor=#dae8fc;strokeColor=#6c8ebf;fontSize=18;html=1;whiteSpace=wrap;align=left;verticalAlign=top;spacing=5;rounded=0;" vertex="1" parent="1">
          <mxGeometry x="-1540" y="-980" width="170" height="60" as="geometry" />
        </mxCell>
        <mxCell id="dGDl5BXjpk7aTAp1fB94-12" value="T4 -&amp;nbsp;UI ставок" style="shape=rect;fillColor=#dae8fc;strokeColor=#6c8ebf;fontSize=18;html=1;whiteSpace=wrap;align=left;verticalAlign=top;spacing=5;rounded=0;" vertex="1" parent="1">
          <mxGeometry x="-1370" y="-822" width="190" height="60" as="geometry" />
        </mxCell>
        <mxCell id="dGDl5BXjpk7aTAp1fB94-13" value="" style="shape=rect;fillColor=#fff2cc;strokeColor=none;fontSize=24;html=1;whiteSpace=wrap;align=left;verticalAlign=top;spacing=5;rounded=0;" vertex="1" parent="1">
          <mxGeometry x="-2500" y="-454" width="1800" height="190" as="geometry" />
        </mxCell>
        <mxCell id="dGDl5BXjpk7aTAp1fB94-14" value="Бэк-офис" style="rounded=0;whiteSpace=wrap;html=1;fillColor=#f5f5f5;fontColor=#333333;strokeColor=#666666;fontSize=18;" vertex="1" parent="1">
          <mxGeometry x="-2630" y="-454" width="120" height="190" as="geometry" />
        </mxCell>
        <mxCell id="dGDl5BXjpk7aTAp1fB94-15" value="MVP целевого решения" style="shape=rect;fillColor=#d5e8d4;strokeColor=#82b366;fontSize=18;html=1;whiteSpace=wrap;align=center;verticalAlign=top;spacing=5;rounded=0;" vertex="1" parent="1">
          <mxGeometry x="-2495" y="-444" width="880" height="44" as="geometry" />
        </mxCell>
        <mxCell id="dGDl5BXjpk7aTAp1fB94-16" value="T5 - Интреграция" style="shape=rect;fillColor=#dae8fc;strokeColor=#6c8ebf;fontSize=18;html=1;whiteSpace=wrap;align=left;verticalAlign=top;spacing=5;rounded=0;" vertex="1" parent="1">
          <mxGeometry x="-1370" y="-634" width="190" height="60" as="geometry" />
        </mxCell>
        <mxCell id="dGDl5BXjpk7aTAp1fB94-17" value="T6 - Обучение" style="shape=rect;fillColor=#dae8fc;strokeColor=#6c8ebf;fontSize=18;html=1;whiteSpace=wrap;align=left;verticalAlign=top;spacing=5;rounded=0;" vertex="1" parent="1">
          <mxGeometry x="-1370" y="-439" width="190" height="60" as="geometry" />
        </mxCell>
        <mxCell id="dGDl5BXjpk7aTAp1fB94-18" value="Реализация целевого решения" style="shape=rect;fillColor=#d5e8d4;strokeColor=#82b366;fontSize=18;html=1;whiteSpace=wrap;align=center;verticalAlign=top;spacing=5;rounded=0;" vertex="1" parent="1">
          <mxGeometry x="-2495" y="-324" width="1775" height="40" as="geometry" />
        </mxCell>
        <mxCell id="dGDl5BXjpk7aTAp1fB94-19" value="Реализация целевого решения" style="shape=rect;fillColor=#d5e8d4;strokeColor=#82b366;fontSize=18;html=1;whiteSpace=wrap;align=center;verticalAlign=top;spacing=5;rounded=0;" vertex="1" parent="1">
          <mxGeometry x="-2495" y="-714" width="1775" height="40" as="geometry" />
        </mxCell>
        <mxCell id="dGDl5BXjpk7aTAp1fB94-20" value="Реализация целевого решения" style="shape=rect;fillColor=#d5e8d4;strokeColor=#82b366;fontSize=18;html=1;whiteSpace=wrap;align=center;verticalAlign=top;spacing=5;rounded=0;" vertex="1" parent="1">
          <mxGeometry x="-2495" y="-900" width="1775" height="40" as="geometry" />
        </mxCell>
        <mxCell id="dGDl5BXjpk7aTAp1fB94-21" value="" style="shape=rect;fillColor=#fff2cc;strokeColor=none;fontSize=24;html=1;whiteSpace=wrap;align=left;verticalAlign=top;spacing=5;rounded=0;" vertex="1" parent="1">
          <mxGeometry x="-2500" y="-250" width="1800" height="190" as="geometry" />
        </mxCell>
        <mxCell id="dGDl5BXjpk7aTAp1fB94-22" value="Интернет-банкинг" style="rounded=0;whiteSpace=wrap;html=1;fillColor=#f5f5f5;fontColor=#333333;strokeColor=#666666;fontSize=18;" vertex="1" parent="1">
          <mxGeometry x="-2630" y="-250" width="120" height="190" as="geometry" />
        </mxCell>
        <mxCell id="dGDl5BXjpk7aTAp1fB94-23" value="MVP целевого решения" style="shape=rect;fillColor=#d5e8d4;strokeColor=#82b366;fontSize=18;html=1;whiteSpace=wrap;align=center;verticalAlign=top;spacing=5;rounded=0;" vertex="1" parent="1">
          <mxGeometry x="-2495" y="-240" width="880" height="50" as="geometry" />
        </mxCell>
        <mxCell id="dGDl5BXjpk7aTAp1fB94-25" value="Реализация целевого решения" style="shape=rect;fillColor=#d5e8d4;strokeColor=#82b366;fontSize=18;html=1;whiteSpace=wrap;align=center;verticalAlign=top;spacing=5;rounded=0;" vertex="1" parent="1">
          <mxGeometry x="-2495" y="-175" width="1775" height="40" as="geometry" />
        </mxCell>
        <mxCell id="dGDl5BXjpk7aTAp1fB94-27" value="" style="shape=rect;fillColor=#fff2cc;strokeColor=none;fontSize=24;html=1;whiteSpace=wrap;align=left;verticalAlign=top;spacing=5;rounded=0;" vertex="1" parent="1">
          <mxGeometry x="-2500" y="-50" width="1800" height="190" as="geometry" />
        </mxCell>
        <mxCell id="dGDl5BXjpk7aTAp1fB94-28" value="Сайт-банка" style="rounded=0;whiteSpace=wrap;html=1;fillColor=#f5f5f5;fontColor=#333333;strokeColor=#666666;fontSize=18;" vertex="1" parent="1">
          <mxGeometry x="-2630" y="-50" width="120" height="190" as="geometry" />
        </mxCell>
        <mxCell id="dGDl5BXjpk7aTAp1fB94-29" value="MVP целевого решения" style="shape=rect;fillColor=#d5e8d4;strokeColor=#82b366;fontSize=18;html=1;whiteSpace=wrap;align=center;verticalAlign=top;spacing=5;rounded=0;" vertex="1" parent="1">
          <mxGeometry x="-2495" y="-40" width="880" height="50" as="geometry" />
        </mxCell>
        <mxCell id="dGDl5BXjpk7aTAp1fB94-31" value="Реализация целевого решения" style="shape=rect;fillColor=#d5e8d4;strokeColor=#82b366;fontSize=18;html=1;whiteSpace=wrap;align=center;verticalAlign=top;spacing=5;rounded=0;" vertex="1" parent="1">
          <mxGeometry x="-2495" y="25" width="1775" height="40" as="geometry" />
        </mxCell>
      </root>
    </mxGraphModel>
  </diagram>
</mxfile>
